# xmcd
#
# Track frame offsets:
#	183
#	12303
#	25613
#	39045
#	49800
#	62345
#	74665
#	87945
#	106213
#	118923
#	129540
#	143473
#	157685
#	171038
#	181218
#	198425
#
# Disc length: 2815 seconds
#
# Revision: 1
# Processed by: cddbd v1.5.1PL0 Copyright (c) Steve Scherf et al.
# Submitted via: audiograbber 1.82.01
#
DISCID=c60afd10
DTITLE=Various Artist - Country Number Ones Volume 4
DYEAR=1989
DGENRE=
TTITLE0=Dolly Parton - Jolen
TTITLE1=Billy Swan - I Can Help
TTITLE2=Ronnie Milsap - (I'd Be) A Legend in My Time
TTITLE3=Tanya Tucker - Would You Lay With Me In A Field Of Stone?
TTITLE4=Hank Snow - Hello Love
TTITLE5=Freddy Fender - Wasted Days And Wasted Nights
TTITLE6=Waylon Jennings - Are You Sure Hank Done It This Way?
TTITLE7=Jehnny Cash - One Piece At A Time
TTITLE8=Don Williams - You're My Best Friend
TTITLE9=Willie Nelson - Blue Eyes Crying In The Rain
TTITLE10=Loretta Lynn - She's Got You
TTITLE11=Conway Twitty - You've Never Been This Far Before
TTITLE12=George Jones and Tammy Wynette - We're Gonna Hold On
TTITLE13=George Hamilten IV - Abilene
TTITLE14=Ray Price - For The Good Times
TTITLE15=Charly Pride - I'll Be Leaving Alone
EXTD=
EXTT0=
EXTT1=
EXTT2=
EXTT3=
EXTT4=
EXTT5=
EXTT6=
EXTT7=
EXTT8=
EXTT9=
EXTT10=
EXTT11=
EXTT12=
EXTT13=
EXTT14=
EXTT15=
PLAYORDER=
